Coordinates
version=1
nRows=9
nColumns=63
inDegrees=yes

Units are S.I. units (second, meters, Newtons, ...)
If the header above contains a line with 'inDegrees', this indicates whether rotational values are in degrees (yes) or radians (no).

endheader
time	pelvis_tilt	pelvis_list	pelvis_rotation	pelvis_tx	pelvis_ty	pelvis_tz	hip_flexion_r	hip_adduction_r	hip_rotation_r	knee_angle_r	knee_angle_r_beta	ankle_angle_r	subtalar_angle_r	mtp_angle_r	hip_flexion_l	hip_adduction_l	hip_rotation_l	knee_angle_l	knee_angle_l_beta	ankle_angle_l	subtalar_angle_l	mtp_angle_l	L5_S1_Flex_Ext	L5_S1_Lat_Bending	L5_S1_axial_rotation	L4_L5_Flex_Ext	L4_L5_Lat_Bending	L4_L5_axial_rotation	L3_L4_Flex_Ext	L3_L4_Lat_Bending	L3_L4_axial_rotation	L2_L3_Flex_Ext	L2_L3_Lat_Bending	L2_L3_axial_rotation	L1_L2_Flex_Ext	L1_L2_Lat_Bending	L1_L2_axial_rotation	L1_T12_Flex_Ext	L1_T12_Lat_Bending	L1_T12_axial_rotation	Abs_r3	Abs_r2	Abs_r1	Abs_t1	Abs_t2	neck_flexion	neck_bending	neck_rotation	arm_flex_r	arm_add_r	arm_rot_r	elbow_flex_r	pro_sup_r	wrist_flex_r	wrist_dev_r	arm_flex_l	arm_add_l	arm_rot_l	elbow_flex_l	pro_sup_l	wrist_flex_l	wrist_dev_l
      1.18333333	      0.26344498	      2.48816774	     96.14441133	      0.28555351	      0.72088142	      0.80604929	     -9.18202762	      4.85054021	      5.92546890	      2.21297147	      0.03862364	     19.74988926	    -10.89987992	      0.00000000	     -6.55057978	     -3.45680304	    -13.91382769	      9.28056182	      0.16197636	     30.43684803	     11.84749104	      0.00000000	     -0.21147916	     -0.30195778	     -1.17869254	     -0.39273795	     -0.40160385	     -1.25236082	     -0.34743911	     -0.73418015	     -1.25236082	     -0.24169953	     -0.73418015	     -1.03135597	     -0.19637955	     -0.61575231	     -0.95768769	     -0.12083919	     -0.46773260	     -0.88401940	     -1.51057449	     -3.41580680	     -6.55553429	      0.00000000	      0.00000000	     -0.38964851	      2.82321374	     -6.36141928	     37.92469951	    -29.77994554	     -5.01341797	    148.09319823	     82.88162841	     24.51560596	     15.92210197	     -6.73645103	    -20.54572069	     36.17398016	     24.99023510	     66.35697566	    -15.62177500	     -4.10854327
      1.20000000	      0.36677765	      2.50919522	     96.09910685	      0.28570406	      0.72082976	      0.80593750	     -9.20464256	      4.93989194	      5.64838633	      2.14423889	      0.03742403	     20.07210095	     -9.99021439	      0.00000000	     -6.53030145	     -3.61626705	    -14.12973338	      9.55926727	      0.16684069	     30.50703924	     12.07656336	      0.00000000	     -0.20861406	     -0.29340942	     -1.18529771	     -0.38741717	     -0.39023452	     -1.25937882	     -0.34273204	     -0.71339566	     -1.25937882	     -0.23842501	     -0.71339566	     -1.03713550	     -0.19371902	     -0.59832048	     -0.96305439	     -0.11920208	     -0.45449119	     -0.88897328	     -1.49010938	     -3.31910600	     -6.59227029	      0.00000000	      0.00000000	     -0.29607032	      2.71915812	     -6.30002390	     38.10983340	    -29.74446102	     -4.98440720	    148.01483308	     82.82231463	     23.57794415	     16.04063659	     -7.24234815	    -20.36185450	     33.23922266	     25.72844604	     69.33116459	    -15.64179589	     -3.46325905
      1.21666667	      0.41246975	      2.61392010	     96.01175823	      0.28593502	      0.72091468	      0.80577380	     -9.35037194	      4.97680873	      5.73617645	      1.99296274	      0.03478376	     20.23464809	     -9.65186027	      0.00000000	     -6.62364946	     -3.62050437	    -13.26937148	      9.74784344	      0.17013196	     30.29670088	     10.80446511	      0.00000000	     -0.21591811	     -0.29089414	     -1.19655918	     -0.40098152	     -0.38688921	     -1.27134412	     -0.35473186	     -0.70728002	     -1.27134412	     -0.24677281	     -0.70728002	     -1.04698928	     -0.20050156	     -0.59319134	     -0.97220433	     -0.12337561	     -0.45059503	     -0.89741938	     -1.54228146	     -3.29065273	     -6.65490317	      0.00000000	      0.00000000	      0.18827581	      2.69054581	     -6.22310026	     38.18098006	    -29.66254099	     -4.63727217	    147.94215144	     82.99853320	     21.90556192	     16.59647742	     -7.64003770	    -20.28341600	     31.44068246	     26.23566107	     70.84706510	    -15.38499547	     -3.09453318
      1.23333333	      0.48902509	      2.71482276	     95.72976933	      0.28642235	      0.72114544	      0.80538043	     -9.48780831	      5.00761824	      6.25589708	      1.86152812	      0.03248979	     20.30044988	     -9.68735568	      0.00000000	     -6.74971617	     -3.72459894	    -13.68000050	      9.95777995	      0.17379605	     30.17442996	     10.98566015	      0.00000000	     -0.20846382	     -0.29032675	     -1.16042204	     -0.38713816	     -0.38613458	     -1.23294842	     -0.34248521	     -0.70590046	     -1.23294842	     -0.23825330	     -0.70590046	     -1.01536929	     -0.19357950	     -0.59203431	     -0.94284291	     -0.11911623	     -0.44971613	     -0.87031653	     -1.48903620	     -3.28423424	     -6.45391929	      0.00000000	      0.00000000	      0.77605933	      2.68682536	     -6.50157982	     38.07781413	    -29.56929833	     -4.54083655	    147.74753976	     82.88525538	     21.26912804	     17.50983122	     -7.78991878	    -20.34107719	     31.28664657	     26.36749042	     70.86064573	    -15.18977984	     -2.80864334
      1.25000000	      0.49955438	      2.82270526	     95.54011475	      0.28680222	      0.72145413	      0.80494687	     -9.65102251	      4.98484739	      6.75190396	      1.71899874	      0.03000219	     20.33126337	     -9.93014711	      0.00000000	     -6.86120702	     -3.68828122	    -13.11938702	     10.12954926	      0.17679399	     29.82096086	      9.92272066	      0.00000000	     -0.19881886	     -0.29695110	     -1.15055958	     -0.36922650	     -0.39494496	     -1.22246955	     -0.32663950	     -0.72200690	     -1.22246955	     -0.22723007	     -0.72200690	     -1.00673963	     -0.18462319	     -0.60554268	     -0.93482966	     -0.11360510	     -0.45997725	     -0.86291968	     -1.42014323	     -3.35917021	     -6.39906721	      0.00000000	      0.00000000	      1.42840826	      2.64723654	     -6.64488172	     37.91927738	    -29.50224240	     -4.03436684	    147.47875205	     83.49907259	     19.88513588	     18.09034475	     -8.05597193	    -20.35867109	     30.64688878	     26.49132517	     71.44031656	    -14.87976076	     -2.36556258
      1.26666667	      0.45748636	      2.89995351	     95.50335594	      0.28702911	      0.72189896	      0.80449459	     -9.76732718	      4.91600620	      6.28249089	      1.66195487	      0.02900658	     20.69566984	     -8.99260277	      0.00000000	     -6.91954502	     -3.60950098	    -12.42287318	     10.28231090	      0.17946018	     29.35138917	      8.80482310	      0.00000000	     -0.18060283	     -0.31082581	     -1.15889744	     -0.33539751	     -0.41339833	     -1.23132853	     -0.29671238	     -0.75574188	     -1.23132853	     -0.20641097	     -0.75574188	     -1.01403526	     -0.16770778	     -0.63383600	     -0.94160417	     -0.10319646	     -0.48146918	     -0.86917308	     -1.29002793	     -3.51612375	     -6.44543988	      0.00000000	      0.00000000	      1.92730930	      2.51158244	     -6.87051140	     37.85384609	    -29.39282360	     -3.58031615	    147.16322511	     84.24847696	     19.40408825	     19.10221214	     -8.08600331	    -20.55115712	     31.38189663	     26.40706480	     70.75233026	    -14.77086656	     -2.18663777
      1.28333333	      0.45459821	      3.00458079	     95.05212883	      0.28746817	      0.72237929	      0.80381757	     -9.95771445	      4.82722280	      7.62619608	      1.57330344	      0.02745933	     20.47977241	    -10.13631892	      0.00000000	     -7.15521433	     -3.46975446	    -11.99342633	     10.22435635	      0.17844868	     28.80155292	      7.48453562	      0.00000000	     -0.15915971	     -0.31177857	     -1.05270625	     -0.29557549	     -0.41466550	     -1.11850039	     -0.26148348	     -0.75805842	     -1.11850039	     -0.18190363	     -0.75805842	     -0.92111797	     -0.14779570	     -0.63577887	     -0.85532383	     -0.09094386	     -0.48294501	     -0.78952969	     -1.13686186	     -3.52690159	     -5.85483636	      0.00000000	      0.00000000	      2.15449434	      2.18210451	     -7.17474619	     37.75087684	    -29.85050588	     -2.81729262	    146.91569160	     85.05285817	     17.66786677	     19.62479145	     -7.91085607	    -20.63647374	     32.16512007	     26.27142835	     70.43011543	    -14.22915695	     -1.25499249
      1.30000000	      0.41292993	      3.08047012	     94.71588337	      0.28787866	      0.72277488	      0.80311969	    -10.13237771	      4.72148701	      8.69785940	      1.52329780	      0.02658656	     20.29960034	    -11.07704283	      0.00000000	     -7.31444077	     -3.35124669	    -11.92076855	     10.24760288	      0.17885441	     28.38261454	      6.76212000	      0.00000000	     -0.13679804	     -0.31730647	     -0.97709709	     -0.25404764	     -0.42201761	     -1.03816565	     -0.22474550	     -0.77149896	     -1.03816565	     -0.15634648	     -0.77149896	     -0.85495995	     -0.12703066	     -0.64705136	     -0.79389138	     -0.07816640	     -0.49150773	     -0.73282281	     -0.97713473	     -3.58943427	     -5.43432086	      0.00000000	      0.00000000	      2.27481462	      1.85588744	     -7.45887637	     37.98901807	    -30.07568870	     -2.33945249	    146.65798756	     85.54333755	     17.86017301	     20.71677167	     -7.91069237	    -20.71511499	     32.35736782	     26.28766750	     70.29009255	    -13.70994051	     -0.46489642
      1.31666667	      0.33945654	      3.11282884	     94.41675063	      0.28824473	      0.72302012	      0.80239998	    -10.26082657	      4.58207271	      9.22886984	      1.56059290	      0.02723748	     20.25610115	    -11.32111789	      0.00000000	     -7.44460332	     -3.21526748	    -12.03503436	     10.21884348	      0.17835246	     28.15520771	      6.42018859	      0.00000000	     -0.11016148	     -0.32554575	     -0.90376308	     -0.20458088	     -0.43297584	     -0.96024827	     -0.18098429	     -0.79153193	     -0.96024827	     -0.12590355	     -0.79153193	     -0.79079270	     -0.10229595	     -0.66385289	     -0.73430750	     -0.06294627	     -0.50427036	     -0.67782231	     -0.78687241	     -3.68263860	     -5.02645913	      0.00000000	      0.00000000	      2.21097064	      1.62358800	     -7.72025752	     38.22952240	    -30.38577076	     -1.92477144	    146.51710577	     85.93935617	     18.07958586	     21.66060325	     -8.02683130	    -20.76595322	     31.97126099	     26.47462878	     70.80010613	    -13.21970800	      0.41007662
